<svg width="149" height="26" viewBox="0 0 149 26" fill="none" xmlns="http://www.w3.org/2000/svg">
<path d="M12.974 15.776H6.162L5.07 19H0.416L7.02 0.747999H12.168L18.772 19H14.066L12.974 15.776ZM11.83 12.344L9.568 5.662L7.332 12.344H11.83ZM25.5139 15.36H33.3659V19H20.4699V15.62L28.2699 4.388H20.4699V0.747999H33.3659V4.128L25.5139 15.36ZM40.6382 0.747999V11.668C40.6382 12.76 40.9069 13.6007 41.4442 14.19C41.9815 14.7793 42.7702 15.074 43.8102 15.074C44.8502 15.074 45.6475 14.7793 46.2022 14.19C46.7569 13.6007 47.0342 12.76 47.0342 11.668V0.747999H51.4802V11.642C51.4802 13.2713 51.1335 14.6493 50.4402 15.776C49.7469 16.9027 48.8109 17.752 47.6322 18.324C46.4709 18.896 45.1709 19.182 43.7322 19.182C42.2935 19.182 41.0022 18.9047 39.8582 18.35C38.7315 17.778 37.8389 16.9287 37.1802 15.802C36.5215 14.658 36.1922 13.2713 36.1922 11.642V0.747999H40.6382ZM63.9102 19L60.1142 12.11H59.0482V19H54.6022V0.747999H62.0642C63.5029 0.747999 64.7249 0.999333 65.7302 1.502C66.7529 2.00467 67.5156 2.698 68.0182 3.582C68.5209 4.44867 68.7722 5.41933 68.7722 6.494C68.7722 7.70733 68.4256 8.79067 67.7322 9.744C67.0562 10.6973 66.0509 11.3733 64.7162 11.772L68.9282 19H63.9102ZM59.0482 8.964H61.8042C62.6189 8.964 63.2256 8.76467 63.6242 8.366C64.0402 7.96733 64.2482 7.404 64.2482 6.676C64.2482 5.98267 64.0402 5.43667 63.6242 5.038C63.2256 4.63933 62.6189 4.44 61.8042 4.44H59.0482V8.964Z" fill="url(#paint0_linear_0_278)"/>
<path d="M83.6769 19.182C82.3423 19.182 81.1463 18.9653 80.0889 18.532C79.0316 18.0987 78.1823 17.4573 77.5409 16.608C76.9169 15.7587 76.5876 14.736 76.5529 13.54H81.2849C81.3543 14.216 81.5883 14.736 81.9869 15.1C82.3856 15.4467 82.9056 15.62 83.5469 15.62C84.2056 15.62 84.7256 15.4727 85.1069 15.178C85.4883 14.866 85.6789 14.4413 85.6789 13.904C85.6789 13.4533 85.5229 13.0807 85.2109 12.786C84.9163 12.4913 84.5436 12.2487 84.0929 12.058C83.6596 11.8673 83.0356 11.6507 82.2209 11.408C81.0423 11.044 80.0803 10.68 79.3349 10.316C78.5896 9.952 77.9483 9.41467 77.4109 8.704C76.8736 7.99333 76.6049 7.066 76.6049 5.922C76.6049 4.22333 77.2203 2.89733 78.4509 1.944C79.6816 0.973333 81.2849 0.488 83.2609 0.488C85.2716 0.488 86.8923 0.973333 88.1229 1.944C89.3536 2.89733 90.0123 4.232 90.0989 5.948H85.2889C85.2543 5.35867 85.0376 4.89933 84.6389 4.57C84.2403 4.22333 83.7289 4.05 83.1049 4.05C82.5676 4.05 82.1343 4.19733 81.8049 4.492C81.4756 4.76933 81.3109 5.17667 81.3109 5.714C81.3109 6.30333 81.5883 6.76267 82.1429 7.092C82.6976 7.42133 83.5643 7.77667 84.7429 8.158C85.9216 8.55667 86.8749 8.938 87.6029 9.302C88.3483 9.666 88.9896 10.1947 89.5269 10.888C90.0643 11.5813 90.3329 12.474 90.3329 13.566C90.3329 14.606 90.0643 15.5507 89.5269 16.4C89.0069 17.2493 88.2443 17.9253 87.2389 18.428C86.2336 18.9307 85.0463 19.182 83.6769 19.182ZM113.895 4.492L109.969 19H105.055L102.767 9.588L100.401 19H95.513L91.561 4.492H96.007L98.061 14.866L100.505 4.492H105.211L107.681 14.814L109.709 4.492H113.895ZM114.707 11.72C114.707 10.2293 114.984 8.92067 115.539 7.794C116.111 6.66733 116.882 5.80067 117.853 5.194C118.823 4.58733 119.907 4.284 121.103 4.284C122.125 4.284 123.018 4.492 123.781 4.908C124.561 5.324 125.159 5.87 125.575 6.546V4.492H130.021V19H125.575V16.946C125.141 17.622 124.535 18.168 123.755 18.584C122.992 19 122.099 19.208 121.077 19.208C119.898 19.208 118.823 18.9047 117.853 18.298C116.882 17.674 116.111 16.7987 115.539 15.672C114.984 14.528 114.707 13.2107 114.707 11.72ZM125.575 11.746C125.575 10.6367 125.263 9.76133 124.639 9.12C124.032 8.47867 123.287 8.158 122.403 8.158C121.519 8.158 120.765 8.47867 120.141 9.12C119.534 9.744 119.231 10.6107 119.231 11.72C119.231 12.8293 119.534 13.7133 120.141 14.372C120.765 15.0133 121.519 15.334 122.403 15.334C123.287 15.334 124.032 15.0133 124.639 14.372C125.263 13.7307 125.575 12.8553 125.575 11.746ZM137.683 6.546C138.116 5.87 138.714 5.324 139.477 4.908C140.24 4.492 141.132 4.284 142.155 4.284C143.351 4.284 144.434 4.58733 145.405 5.194C146.376 5.80067 147.138 6.66733 147.693 7.794C148.265 8.92067 148.551 10.2293 148.551 11.72C148.551 13.2107 148.265 14.528 147.693 15.672C147.138 16.7987 146.376 17.674 145.405 18.298C144.434 18.9047 143.351 19.208 142.155 19.208C141.15 19.208 140.257 19 139.477 18.584C138.714 18.168 138.116 17.6307 137.683 16.972V25.916H133.237V4.492H137.683V6.546ZM144.027 11.72C144.027 10.6107 143.715 9.744 143.091 9.12C142.484 8.47867 141.73 8.158 140.829 8.158C139.945 8.158 139.191 8.47867 138.567 9.12C137.96 9.76133 137.657 10.6367 137.657 11.746C137.657 12.8553 137.96 13.7307 138.567 14.372C139.191 15.0133 139.945 15.334 140.829 15.334C141.713 15.334 142.467 15.0133 143.091 14.372C143.715 13.7133 144.027 12.8293 144.027 11.72Z" fill="white"/>
<defs>
<linearGradient id="paint0_linear_0_278" x1="75" y1="-10" x2="75" y2="29" gradientUnits="userSpaceOnUse">
<stop offset="0.140625" stop-color="#FF47FF"/>
<stop offset="0.677083" stop-color="#FD1C68"/>
<stop offset="1" stop-color="#FF7070"/>
</linearGradient>
</defs>
</svg>
