<svg width="52" height="43" viewBox="0 0 52 43" fill="none" xmlns="http://www.w3.org/2000/svg">
<path d="M21.8948 0C8.21041 0 0 11.4666 0 17.2005C0 22.9343 2.73644 27.2344 8.21041 27.2344C13.6844 27.2344 16.4219 28.667 16.4219 32.9672C16.4219 38.6999 20.5266 43 26.0005 43C43.7907 43 52 32.9672 52 22.9343C51.9989 5.73386 38.3124 0 21.8948 0ZM18.4737 5.73386C18.9235 5.73446 19.3688 5.8276 19.7842 6.00796C20.1996 6.18833 20.5769 6.45239 20.8946 6.78508C21.2123 7.11776 21.4641 7.51254 21.6357 7.94689C21.8073 8.38124 21.8954 8.84665 21.8948 9.31653C21.8948 11.2968 20.363 12.9003 18.4737 12.9003C16.5844 12.9003 15.0526 11.2957 15.0526 9.31653C15.052 8.84665 15.1401 8.38124 15.3117 7.94689C15.4833 7.51254 15.7351 7.11776 16.0528 6.78508C16.3705 6.45239 16.7478 6.18833 17.1632 6.00796C17.5785 5.8276 18.0239 5.73446 18.4737 5.73386ZM29.4195 5.73386C29.8693 5.73446 30.3146 5.8276 30.73 6.00796C31.1454 6.18833 31.5227 6.45239 31.8403 6.78508C32.158 7.11776 32.4099 7.51254 32.5815 7.94689C32.7531 8.38124 32.8411 8.84665 32.8406 9.31653C32.8413 9.78652 32.7533 10.252 32.5818 10.6865C32.4102 11.121 32.1584 11.5159 31.8407 11.8487C31.523 12.1815 31.1457 12.4457 30.7302 12.6261C30.3148 12.8066 29.8694 12.8997 29.4195 12.9003C28.9696 12.8996 28.5243 12.8063 28.109 12.6258C27.6937 12.4453 27.3165 12.1811 26.9989 11.8483C26.6813 11.5155 26.4296 11.1207 26.2581 10.6863C26.0866 10.2519 25.9987 9.78642 25.9995 9.31653C25.9983 8.36775 26.3579 7.45732 26.9993 6.78548C27.6406 6.11363 28.5112 5.73536 29.4195 5.73386ZM40.3674 11.4666C40.8174 11.467 41.2629 11.5601 41.6785 11.7405C42.0941 11.9208 42.4716 12.185 42.7894 12.5178C43.1072 12.8506 43.3591 13.2456 43.5307 13.6801C43.7023 14.1147 43.7903 14.5803 43.7896 15.0504C43.7903 15.5204 43.7023 15.986 43.5307 16.4205C43.3591 16.855 43.1071 17.2499 42.7893 17.5826C42.4715 17.9153 42.094 18.1793 41.6784 18.3596C41.2629 18.5398 40.8174 18.6328 40.3674 18.6331C39.9176 18.6326 39.4723 18.5396 39.0569 18.3592C38.6415 18.1789 38.2642 17.9148 37.9466 17.5821C37.629 17.2494 37.3772 16.8545 37.2058 16.4201C37.0343 15.9857 36.9465 15.5203 36.9474 15.0504C36.9465 14.5805 37.0343 14.115 37.2058 13.6805C37.3772 13.246 37.6289 12.8511 37.9465 12.5183C38.2641 12.1855 38.6414 11.9213 39.0568 11.7408C39.4722 11.5604 39.9175 11.4672 40.3674 11.4666ZM8.89506 14.3341C9.3448 14.3345 9.79004 14.4275 10.2053 14.6078C10.6207 14.7881 10.9979 15.052 11.3155 15.3846C11.6331 15.7172 11.8848 16.112 12.0564 16.5462C12.2279 16.9805 12.3158 17.4458 12.3151 17.9156C12.3151 19.8959 10.7833 21.4994 8.89506 21.4994C7.00685 21.4994 5.47397 19.8948 5.47397 17.9156C5.47311 16.9668 5.83302 16.0565 6.47457 15.3849C7.11612 14.7133 7.98677 14.3353 8.89506 14.3341ZM25.9995 28.667C28.2668 28.667 30.1041 30.5908 30.1041 32.9683C30.1041 35.3424 28.2668 37.2673 25.9995 37.2673C23.7321 37.2673 21.8948 35.3424 21.8948 32.9683C21.8938 32.4043 21.9992 31.8456 22.205 31.3242C22.4107 30.8027 22.7128 30.3288 23.094 29.9293C23.4752 29.5299 23.928 29.2128 24.4265 28.9962C24.925 28.7796 25.4595 28.6678 25.9995 28.667Z" fill="black"/>
</svg>
