<svg width="44" height="29" viewBox="0 0 44 29" fill="none" xmlns="http://www.w3.org/2000/svg">
<path d="M37.6949 4.41765C36.0837 1.97808 33.13 0.758301 29.9078 0.758301H13.7965C10.5742 0.758301 7.6205 1.97808 6.00938 4.41765C-0.166609 12.9561 -1.50921 25.8858 2.78712 28.5693C7.08346 31.2529 16.7502 19.5429 21.8521 19.5429C26.954 19.5429 36.3523 31.2529 40.9171 28.5693C45.2135 25.8858 43.8709 12.9561 37.6949 4.41765ZM16.4817 12.9561H13.7965V15.3957H11.1113V12.9561H8.42607V10.5166H11.1113V8.077H13.7965V10.5166H16.4817V12.9561ZM30.9818 14.1759C30.9818 15.3957 29.9078 16.3715 28.5652 16.3715C27.2225 16.3715 26.1485 15.3957 26.1485 14.1759C26.1485 12.9561 27.2225 11.9803 28.5652 11.9803C29.9078 11.9803 30.9818 12.9561 30.9818 14.1759ZM36.0837 9.29678C36.0837 10.5166 35.0097 11.4924 33.667 11.4924C32.3244 11.4924 31.2504 10.5166 31.2504 9.29678C31.2504 8.077 32.3244 7.10117 33.667 7.10117C35.0097 7.10117 36.0837 8.077 36.0837 9.29678Z" fill="#F600FE"/>
</svg>
